<?xml version="1.0" encoding="UTF-8"?>
<svg width="96px" height="25px" viewBox="0 0 96 25" version="1.1" xmlns="http://www.w3.org/2000/svg" xmlns:xlink="http://www.w3.org/1999/xlink">
    <!-- Generator: Sketch 52.6 (67491) - http://www.bohemiancoding.com/sketch -->
    <title>Logo</title>
    <desc>Created with Sketch.</desc>
    <g id="Logo" stroke="none" stroke-width="1" fill="none" fill-rule="evenodd">
        <path d="M0.008,1.6 L4.168,1.6 L4.168,20.48 L15.88,20.48 L15.88,24 L0.008,24 L0.008,1.6 Z M25.32,6.72 C27.8373459,6.72 29.76266,7.32266064 31.096,8.528 C32.42934,9.73333936 33.096,11.5519878 33.096,13.984 L33.096,24 L29.32,24 L29.32,21.92 C28.8293309,22.6666704 28.1306712,23.2373314 27.224,23.632 C26.3173288,24.0266686 25.2240064,24.224 23.944,24.224 C22.6639936,24.224 21.5440048,24.0053355 20.584,23.568 C19.6239952,23.1306645 18.8826693,22.5226706 18.36,21.744 C17.8373307,20.9653294 17.576,20.0853382 17.576,19.104 C17.576,17.5679923 18.146661,16.3360046 19.288,15.408 C20.429339,14.4799954 22.2266544,14.016 24.68,14.016 L29.096,14.016 L29.096,13.76 C29.096,12.5653274 28.7386702,11.6480032 28.024,11.008 C27.3093298,10.3679968 26.248007,10.048 24.84,10.048 C23.8799952,10.048 22.9360046,10.1973318 22.008,10.496 C21.0799954,10.7946682 20.2960032,11.210664 19.656,11.744 L18.088,8.832 C18.9840045,8.14932992 20.061327,7.62666848 21.32,7.264 C22.578673,6.90133152 23.911993,6.72 25.32,6.72 Z M24.776,21.312 C25.7786717,21.312 26.6693294,21.082669 27.448,20.624 C28.2266706,20.165331 28.7759984,19.5093376 29.096,18.656 L29.096,16.672 L24.968,16.672 C22.6639885,16.672 21.512,17.4293258 21.512,18.944 C21.512,19.669337 21.7999971,20.2453312 22.376,20.672 C22.9520029,21.0986688 23.7519949,21.312 24.776,21.312 Z M47.688,6.72 C49.3520083,6.72 50.8399934,7.08266304 52.152,7.808 C53.4640066,8.53333696 54.4933296,9.55732672 55.24,10.88 C55.9866704,12.2026733 56.36,13.7279914 56.36,15.456 C56.36,17.1840086 55.9866704,18.71466 55.24,20.048 C54.4933296,21.38134 53.4640066,22.410663 52.152,23.136 C50.8399934,23.861337 49.3520083,24.224 47.688,24.224 C46.5146608,24.224 45.4426715,24.0213354 44.472,23.616 C43.5013285,23.2106646 42.6853366,22.6026707 42.024,21.792 L42.024,24 L38.216,24 L38.216,0.256 L42.216,0.256 L42.216,8.992 C42.8986701,8.2453296 43.7039954,7.68000192 44.632,7.296 C45.5600046,6.91199808 46.5786611,6.72 47.688,6.72 Z M47.24,20.8 C48.7120074,20.8 49.9226619,20.3093382 50.872,19.328 C51.8213381,18.3466618 52.296,17.056008 52.296,15.456 C52.296,13.855992 51.8213381,12.5653382 50.872,11.584 C49.9226619,10.6026618 48.7120074,10.112 47.24,10.112 C46.2799952,10.112 45.4160038,10.3306645 44.648,10.768 C43.8799962,11.2053355 43.2720022,11.8293293 42.824,12.64 C42.3759978,13.4506707 42.152,14.389328 42.152,15.456 C42.152,16.522672 42.3759978,17.4613293 42.824,18.272 C43.2720022,19.0826707 43.8799962,19.7066645 44.648,20.144 C45.4160038,20.5813355 46.2799952,20.8 47.24,20.8 Z M76.232,15.552 C76.232,15.8293347 76.2106669,16.2239974 76.168,16.736 L62.76,16.736 C62.9946678,17.994673 63.607995,18.9919963 64.6,19.728 C65.592005,20.4640037 66.8239926,20.832 68.296,20.832 C70.1733427,20.832 71.7199939,20.2133395 72.936,18.976 L75.08,21.44 C74.3119962,22.3573379 73.3413392,23.0506643 72.168,23.52 C70.9946608,23.9893357 69.6720074,24.224 68.2,24.224 C66.3226573,24.224 64.6693405,23.8506704 63.24,23.104 C61.8106595,22.3573296 60.7066706,21.31734 59.928,19.984 C59.1493294,18.65066 58.76,17.1413418 58.76,15.456 C58.76,13.7919917 59.1386629,12.29334 59.896,10.96 C60.6533371,9.62666 61.7039933,8.5866704 63.048,7.84 C64.3920067,7.0933296 65.9066582,6.72 67.592,6.72 C69.2560083,6.72 70.7439934,7.08799632 72.056,7.824 C73.3680066,8.56000368 74.3919963,9.59466 75.128,10.928 C75.8640037,12.26134 76.232,13.8026579 76.232,15.552 Z M67.592,9.92 C66.3119936,9.92 65.2293378,10.2986629 64.344,11.056 C63.4586622,11.8133371 62.920001,12.821327 62.728,14.08 L72.424,14.08 C72.2533325,12.8426605 71.730671,11.8400038 70.856,11.072 C69.981329,10.3039962 68.8933398,9.92 67.592,9.92 Z M80.072,0.256 L84.072,0.256 L84.072,24 L80.072,24 L80.072,0.256 Z" id="Label" fill="#575DFA"></path>
        <path d="M91.32,24.35 C89.9899934,24.35 88.8875044,23.9241709 88.0125,23.0725 C87.1374956,22.2208291 86.7,21.1300066 86.7,19.8 C86.7,18.4699934 87.1374956,17.3908375 88.0125,16.5625 C88.8875044,15.7341625 89.9899934,15.32 91.32,15.32 C92.6500066,15.32 93.7524956,15.7341625 94.6275,16.5625 C95.5025044,17.3908375 95.94,18.4699934 95.94,19.8 C95.94,21.1300066 95.5025044,22.2208291 94.6275,23.0725 C93.7524956,23.9241709 92.6500066,24.35 91.32,24.35 Z" id="." fill="#DB504A"></path>
    </g>
</svg>